<?xml version="1.0" standalone="no"?>
<!DOCTYPE svg PUBLIC "-//W3C//DTD SVG 20010904//EN"
 "http://www.w3.org/TR/2001/REC-SVG-20010904/DTD/svg10.dtd">
<svg version="1.0" xmlns="http://www.w3.org/2000/svg"
 width="360.000000pt" height="360.000000pt" viewBox="0 0 360.000000 360.000000"
 preserveAspectRatio="xMidYMid meet">

<g transform="translate(0.000000,360.000000) scale(0.100000,-0.100000)"
fill="#000000" stroke="none">
<path d="M2765 2815 c-120 -27 -555 -124 -750 -167 -77 -16 -142 -32 -144 -34
-8 -7 24 -4 58 6 19 5 37 8 39 5 4 -4 -179 -264 -203 -288 -7 -7 -42 -19 -79
-26 -37 -7 -65 -15 -62 -18 4 -4 394 80 636 137 69 17 133 30 141 30 9 0 16 6
16 13 0 18 192 286 213 297 20 10 202 52 207 47 1 -2 -44 -68 -100 -148 -114
-159 -101 -149 -252 -180 -33 -6 -55 -14 -49 -16 5 -2 119 21 251 52 133 30
249 55 258 55 9 0 18 6 20 13 8 20 -70 242 -86 244 -8 1 -59 -9 -114 -22z
m-365 -101 c0 -8 -188 -270 -203 -282 -14 -12 -206 -56 -213 -50 -4 4 176 262
199 285 18 18 217 62 217 47z"/>
<path d="M1680 2574 c-184 -42 -703 -158 -980 -219 -108 -24 -146 -36 -148
-48 -5 -23 58 -220 74 -233 10 -8 14 -43 14 -133 0 -101 2 -121 15 -121 12 0
15 -20 15 -120 l0 -120 274 0 c292 0 523 -13 602 -35 27 -7 41 -14 32 -14 -12
-1 -18 -9 -18 -27 0 -14 4 -23 10 -19 6 3 10 2 10 -2 0 -14 -34 -30 -60 -28
-14 1 -74 5 -135 9 -60 3 -145 9 -187 12 l-78 6 0 -159 0 -159 166 -12 c92 -6
169 -14 172 -16 6 -6 7 -95 1 -101 -3 -2 -111 0 -240 5 -128 5 -305 10 -391
10 l-158 0 0 -164 0 -165 29 -20 c29 -21 33 -21 1151 -21 964 0 1125 2 1149
15 35 18 41 32 41 102 l0 55 68 -6 c37 -3 121 -8 187 -12 115 -6 250 -24 288
-39 12 -5 17 -2 17 9 0 9 -4 16 -10 16 -5 0 -10 14 -10 31 0 20 4 28 11 23 14
-9 6 335 -9 382 -7 23 -7 35 1 43 34 34 -72 57 -340 73 l-203 12 0 218 c0 187
2 218 15 218 13 0 15 21 15 130 l0 130 -966 0 c-619 0 -963 -3 -959 -10 3 -5
20 -7 38 -4 l32 5 -28 -22 c-25 -19 -28 -26 -22 -60 9 -55 -18 -79 -88 -79
-46 0 -58 -5 -101 -40 l-48 -40 -117 0 -116 1 45 39 45 39 -45 1 c-25 0 -56 7
-68 16 -21 15 -22 21 -22 170 0 177 -2 174 98 171 l52 -2 41 60 41 61 105 23
c58 12 107 20 109 18 3 -2 -27 -47 -65 -100 l-69 -95 52 -34 53 -34 246 55
c136 30 243 58 238 61 -5 3 38 70 95 150 l103 145 58 17 c97 28 27 18 -127
-18z m-162 -76 c-13 -18 -61 -86 -107 -150 l-83 -116 -76 -17 c-43 -9 -92 -20
-109 -25 -18 -5 -33 -6 -33 -3 0 3 191 275 206 292 4 5 185 49 208 50 17 1 16
-2 -6 -31z m132 -442 c-8 -8 -73 -62 -145 -120 l-130 -106 -114 0 c-82 0 -112
3 -104 11 6 6 71 60 144 119 l134 109 115 1 c99 0 112 -2 100 -14z m450 0 c-8
-8 -73 -62 -145 -120 l-130 -106 -115 0 c-99 0 -112 2 -100 14 8 8 74 62 145
120 l130 105 115 1 c99 0 112 -2 100 -14z m460 10 c0 -2 -65 -56 -143 -120
l-144 -116 -117 0 -117 0 148 120 148 119 113 1 c61 0 112 -2 112 -4z m450 0
c0 -2 -65 -56 -144 -120 l-143 -116 -117 0 -117 0 108 87 c59 48 126 102 147
120 l40 33 113 0 c62 0 113 -2 113 -4z m-1300 -598 c0 -19 -2 -20 -11 -8 -8
11 -9 4 -7 -28 3 -40 2 -43 -29 -54 -18 -7 -33 -15 -33 -19 0 -3 80 -9 178
-13 157 -6 341 -2 832 20 80 4 142 3 137 -2 -4 -4 -22 -8 -40 -8 -29 -1 -32
-4 -35 -33 -3 -31 -1 -33 27 -33 17 0 32 5 32 10 1 6 2 14 3 19 0 5 5 13 10
18 8 7 -1 -47 -9 -56 -2 -2 -23 -5 -47 -7 -24 -3 -107 -11 -185 -19 -78 -8
-149 -15 -158 -15 -13 0 -15 -22 -15 -159 l0 -159 38 4 c94 10 285 24 326 24
49 0 64 -14 19 -18 -32 -3 -30 0 -35 -37 -3 -29 -1 -30 35 -30 20 0 37 -3 37
-7 0 -10 25 -7 -185 -24 -258 -20 -783 -29 -926 -15 -133 13 -180 26 -172 47
3 8 0 14 -6 14 -6 0 -11 14 -11 31 l0 31 53 -6 c28 -3 89 -9 135 -13 l83 -6
-3 154 -3 153 -101 13 c-135 17 -158 26 -150 58 5 18 2 25 -9 25 -8 0 -15 9
-15 20 0 11 3 20 8 20 12 0 31 -50 25 -66 -3 -8 1 -14 10 -14 8 0 17 11 19 25
4 19 1 25 -13 25 -21 0 -25 15 -6 24 9 5 9 7 -1 12 -6 3 -10 10 -7 14 3 5 1
11 -5 15 -5 3 -10 1 -10 -4 0 -6 -4 -11 -10 -11 -5 0 -10 7 -10 16 0 18 49 40
155 70 44 12 81 22 83 23 1 1 2 -9 2 -21z m1480 -150 c0 -27 -2 -29 -32 -26
-26 2 -34 8 -36 27 -4 28 10 40 44 33 19 -3 24 -11 24 -34z m128 9 c6 -32 -5
-45 -32 -40 -21 4 -26 11 -26 35 0 26 3 29 27 26 17 -2 29 -10 31 -21z m102
-17 c0 -23 -4 -30 -20 -30 -16 0 -20 7 -20 30 0 23 4 30 20 30 16 0 20 -7 20
-30z m80 -10 c0 -20 -5 -30 -15 -30 -10 0 -15 10 -15 30 0 20 5 30 15 30 10 0
15 -10 15 -30z m55 -13 c0 -39 -19 -38 -23 2 -3 24 0 32 10 29 7 -3 13 -17 13
-31z m-692 -4 c-7 -2 -21 -2 -30 0 -10 3 -4 5 12 5 17 0 24 -2 18 -5z m-59
-160 c2 -70 0 -137 -5 -148 -4 -11 -8 47 -8 134 -1 85 2 152 5 149 3 -3 7 -64
8 -135z m386 -229 c0 -33 -2 -35 -27 -32 -23 2 -29 8 -31 36 -3 30 -1 32 27
32 29 0 31 -3 31 -36z m-143 -6 c-3 -7 -5 -2 -5 12 0 14 2 19 5 13 2 -7 2 -19
0 -25z m273 2 c0 -25 -4 -30 -25 -30 -21 0 -25 5 -25 30 0 25 4 30 25 30 21 0
25 -5 25 -30z m108 -13 c3 -25 0 -28 -20 -25 -17 2 -24 11 -26 31 -3 25 0 28
20 25 17 -2 24 -11 26 -31z m82 -8 c0 -24 -4 -30 -17 -27 -11 2 -19 14 -21 31
-3 22 1 27 17 27 17 0 21 -6 21 -31z m50 -9 c0 -16 -4 -30 -10 -30 -5 0 -10
14 -10 30 0 17 5 30 10 30 6 0 10 -13 10 -30z m-687 -7 c-7 -2 -21 -2 -30 0
-10 3 -4 5 12 5 17 0 24 -2 18 -5z"/>
<path d="M1650 1420 c0 -16 5 -30 10 -30 6 0 10 14 10 30 0 17 -4 30 -10 30
-5 0 -10 -13 -10 -30z"/>
<path d="M1603 1433 c-19 -7 -17 -63 2 -63 10 0 15 11 15 35 0 19 -1 35 -2 34
-2 0 -9 -3 -15 -6z"/>
<path d="M1530 1384 c0 -14 4 -23 10 -19 6 3 10 15 10 26 0 10 -4 19 -10 19
-5 0 -10 -12 -10 -26z"/>
<path d="M2587 1343 c-3 -5 -4 -19 -3 -33 1 -20 6 -25 26 -25 21 0 26 5 28 33
3 28 0 32 -22 32 -14 0 -27 -3 -29 -7z"/>
<path d="M1570 1312 c0 -32 27 -52 36 -27 9 23 0 50 -19 53 -13 3 -17 -3 -17
-26z"/>
<path d="M2480 1310 c0 -25 4 -30 25 -30 21 0 25 5 25 30 0 25 -4 30 -25 30
-21 0 -25 -5 -25 -30z"/>
<path d="M1677 1323 c-4 -3 -7 -17 -7 -30 0 -18 5 -23 25 -23 21 0 25 5 25 30
0 22 -5 30 -18 30 -10 0 -22 -3 -25 -7z"/>
<path d="M2262 1298 c2 -25 8 -33 23 -33 15 0 21 8 23 33 3 29 1 32 -23 32
-24 0 -26 -3 -23 -32z"/>
<path d="M2380 1300 c0 -25 4 -30 25 -30 21 0 25 5 25 30 0 25 -4 30 -25 30
-21 0 -25 -5 -25 -30z"/>
<path d="M1792 1293 c2 -22 9 -29 31 -31 24 -3 27 0 27 27 0 28 -3 31 -31 31
-27 0 -30 -3 -27 -27z"/>
<path d="M1940 1290 c0 -28 2 -30 40 -30 38 0 40 2 40 30 0 28 -2 30 -40 30
-38 0 -40 -2 -40 -30z"/>
<path d="M2110 1289 c0 -28 2 -30 33 -27 27 2 33 8 35 31 3 25 1 27 -32 27
-33 0 -36 -2 -36 -31z"/>
<path d="M2165 1230 c-71 -4 -190 -6 -263 -6 l-132 1 0 -157 0 -158 188 0
c103 0 231 3 285 7 l97 6 0 159 c0 158 0 158 -22 156 -13 -1 -81 -5 -153 -8z"/>
<path d="M1501 913 c-2 -31 9 -53 25 -53 8 0 14 9 14 21 0 14 -5 19 -14 16
-10 -4 -16 2 -19 16 l-4 22 -2 -22z"/>
<path d="M2590 891 c0 -35 8 -42 38 -34 16 4 22 13 22 34 0 26 -4 29 -30 29
-27 0 -30 -3 -30 -29z"/>
<path d="M1580 881 c0 -25 4 -31 21 -31 16 0 20 5 17 27 -2 17 -10 29 -20 31
-14 3 -18 -3 -18 -27z"/>
<path d="M2384 896 c-11 -29 0 -51 26 -51 21 0 25 5 25 30 0 24 -5 31 -23 33
-13 2 -24 -3 -28 -12z"/>
<path d="M2490 880 c0 -25 4 -30 25 -30 21 0 25 5 25 30 0 25 -4 30 -25 30
-21 0 -25 -5 -25 -30z"/>
<path d="M1680 870 c0 -25 4 -30 25 -30 21 0 25 5 25 30 0 25 -4 30 -25 30
-21 0 -25 -5 -25 -30z"/>
<path d="M2127 893 c-4 -3 -7 -19 -7 -35 0 -24 4 -28 29 -28 34 0 51 31 31 55
-13 16 -42 20 -53 8z"/>
<path d="M2260 870 c0 -27 3 -30 30 -30 27 0 30 3 30 30 0 27 -3 30 -30 30
-27 0 -30 -3 -30 -30z"/>
<path d="M1802 863 c2 -22 8 -28 28 -28 20 0 26 6 28 28 3 24 0 27 -28 27 -28
0 -31 -3 -28 -27z"/>
<path d="M1950 860 c0 -28 3 -30 34 -30 26 0 36 5 41 20 9 29 -2 40 -41 40
-31 0 -34 -2 -34 -30z"/>
<path d="M1578 2283 c6 -2 18 -2 25 0 6 3 1 5 -13 5 -14 0 -19 -2 -12 -5z"/>
<path d="M835 2260 c11 -5 27 -9 35 -9 13 -1 13 0 0 9 -8 5 -24 9 -35 9 l-20
0 20 -9z"/>
<path d="M905 2250 c3 -5 11 -10 16 -10 6 0 7 5 4 10 -3 6 -11 10 -16 10 -6 0
-7 -4 -4 -10z"/>
<path d="M754 2226 c8 -23 -10 -46 -37 -46 -11 0 -18 -3 -14 -6 10 -11 54 5
61 22 3 9 1 23 -5 32 -9 15 -10 15 -5 -2z"/>
<path d="M710 2210 c0 -5 5 -10 10 -10 6 0 10 5 10 10 0 6 -4 10 -10 10 -5 0
-10 -4 -10 -10z"/>
<path d="M747 1990 c13 -18 7 -32 -22 -48 -17 -9 -17 -11 -3 -12 17 0 48 25
48 39 0 5 -8 15 -17 22 -16 12 -17 12 -6 -1z"/>
<path d="M1124 1978 c1 -14 -9 -27 -24 -35 -14 -7 -19 -13 -12 -13 38 0 70 47
44 64 -5 3 -8 -5 -8 -16z"/>
<path d="M705 1970 c-3 -5 1 -10 9 -10 9 0 16 5 16 10 0 6 -4 10 -9 10 -6 0
-13 -4 -16 -10z"/>
<path d="M1080 1970 c0 -5 7 -10 15 -10 8 0 15 5 15 10 0 6 -7 10 -15 10 -8 0
-15 -4 -15 -10z"/>
<path d="M147 1545 c-48 -7 -100 -18 -116 -25 l-28 -11 5 -227 c2 -125 5 -244
5 -265 1 -30 4 -36 17 -31 26 11 141 32 218 40 85 8 103 20 29 19 -49 0 -52 1
-54 28 -1 21 4 30 20 37 18 7 19 9 4 9 -10 1 -26 -3 -36 -8 -9 -5 -23 -6 -30
-2 -16 10 25 17 192 33 l127 12 0 159 0 160 -107 -7 c-60 -3 -128 -8 -153 -10
-25 -2 -38 -2 -30 1 11 3 14 14 12 43 -4 39 -3 40 28 40 24 0 31 -4 27 -15 -4
-8 -1 -17 5 -21 7 -5 9 2 6 19 -4 23 -1 26 26 30 17 2 6 4 -24 4 -30 1 -94 -5
-143 -12z m23 -40 c0 -14 1 -28 3 -32 1 -5 -8 -9 -20 -11 -19 -3 -23 1 -23 26
0 32 7 42 27 42 7 0 13 -11 13 -25z m-75 -21 c0 -19 -6 -30 -17 -32 -14 -3
-18 3 -18 26 0 16 3 32 7 36 14 13 28 -1 28 -30z m-55 -14 c0 -16 -4 -30 -10
-30 -5 0 -10 14 -10 30 0 17 5 30 10 30 6 0 10 -13 10 -30z m140 -401 c0 -16
-2 -29 -4 -29 -2 0 -11 -3 -20 -6 -13 -5 -16 1 -16 28 0 19 3 37 6 41 14 13
34 -7 34 -34z m-80 -14 c0 -24 -5 -35 -15 -35 -10 0 -15 11 -15 35 0 24 5 35
15 35 10 0 15 -11 15 -35z m-50 -16 c0 -16 -4 -29 -10 -29 -5 0 -10 16 -10 36
0 21 4 33 10 29 6 -3 10 -19 10 -36z"/>
<path d="M690 1530 c0 -27 3 -30 30 -30 27 0 30 3 30 30 0 27 -3 30 -30 30
-27 0 -30 -3 -30 -30z"/>
<path d="M847 1554 c-4 -4 -7 -18 -7 -31 0 -20 5 -23 36 -23 33 0 35 2 32 28
-2 20 -9 28 -28 30 -14 2 -29 0 -33 -4z"/>
<path d="M1000 1531 c0 -29 3 -31 36 -31 33 0 35 2 32 28 -2 22 -8 28 -35 30
-31 3 -33 1 -33 -27z"/>
<path d="M1150 1526 c0 -24 23 -41 41 -30 5 3 9 16 9 30 0 19 -5 24 -25 24
-20 0 -25 -5 -25 -24z"/>
<path d="M1277 1538 c-8 -26 5 -48 29 -48 20 0 24 5 24 30 0 25 -4 30 -24 30
-13 0 -26 -6 -29 -12z"/>
<path d="M1400 1511 c0 -27 4 -31 26 -31 22 0 25 4 22 28 -2 19 -9 28 -25 30
-20 3 -23 -1 -23 -27z"/>
<path d="M1507 1533 c-4 -3 -7 -19 -7 -35 0 -23 4 -28 25 -28 21 0 25 5 25 29
0 17 -6 31 -16 35 -19 7 -19 7 -27 -1z"/>
<path d="M305 1510 c-3 -5 -1 -10 4 -10 6 0 11 5 11 10 0 6 -2 10 -4 10 -3 0
-8 -4 -11 -10z"/>
<path d="M542 1473 c-22 -4 -22 -5 -20 -161 3 -142 5 -157 21 -156 9 0 136 1
282 2 l265 2 0 160 0 160 -262 -1 c-145 -1 -273 -4 -286 -6z"/>
<path d="M699 1125 c-9 -38 -2 -50 29 -53 30 -3 32 -1 32 27 0 28 -3 31 -30
31 -16 0 -30 -2 -31 -5z"/>
<path d="M850 1100 c0 -29 2 -31 33 -28 27 2 32 7 32 28 0 21 -5 26 -32 28
-31 3 -33 1 -33 -28z"/>
<path d="M1010 1100 c0 -27 3 -30 30 -30 27 0 30 3 30 30 0 27 -3 30 -30 30
-27 0 -30 -3 -30 -30z"/>
<path d="M1157 1124 c-4 -4 -7 -18 -7 -31 0 -19 5 -23 31 -23 27 0 30 3 27 28
-3 26 -34 43 -51 26z"/>
<path d="M1280 1090 c0 -27 3 -30 30 -30 27 0 30 3 30 30 0 27 -3 30 -30 30
-27 0 -30 -3 -30 -30z"/>
<path d="M1404 1106 c-10 -27 1 -51 24 -54 21 -3 23 0 20 30 -3 35 -33 52 -44
24z"/>
<path d="M282 1080 c0 -14 2 -19 5 -12 2 6 2 18 0 25 -3 6 -5 1 -5 -13z"/>
<path d="M2104 229 c-3 -6 -17 -8 -29 -5 -14 4 -29 0 -37 -7 -11 -12 -16 -12
-26 0 -17 17 -27 17 -46 -3 -9 -8 -16 -11 -16 -6 0 13 -27 23 -45 16 -11 -4
-15 -20 -14 -53 1 -25 3 -38 6 -29 2 10 10 15 19 11 8 -3 21 0 29 7 11 9 15 9
15 1 0 -7 5 -9 10 -6 6 3 10 18 10 31 0 35 23 26 31 -12 4 -17 7 -21 8 -10 1
23 11 16 15 -11 3 -22 32 -29 51 -13 8 7 16 27 16 44 l1 31 7 -30 c8 -38 41
-48 41 -12 0 14 3 33 6 41 5 12 2 15 -10 10 -9 -3 -16 -1 -16 5 0 14 -17 14
-26 0z m-166 -42 c2 -12 -3 -17 -17 -17 -12 0 -21 6 -21 13 0 31 32 34 38 4z
m142 3 c0 -13 -7 -20 -20 -20 -19 0 -27 20 -13 33 13 14 33 6 33 -13z m52 -12
c-9 -9 -12 -7 -12 12 0 19 3 21 12 12 9 -9 9 -15 0 -24z"/>
<path d="M2176 214 c-20 -19 -20 -38 -1 -54 15 -13 55 -5 55 11 0 6 7 3 16 -6
25 -24 49 -15 52 21 2 21 -2 33 -12 37 -19 8 -46 -1 -46 -15 0 -5 -7 -2 -16 6
-8 9 -19 16 -24 16 -5 0 -16 -7 -24 -16z m31 -10 c-3 -3 -12 -4 -19 -1 -8 3
-5 6 6 6 11 1 17 -2 13 -5z m76 -1 c-7 -2 -19 -2 -25 0 -7 3 -2 5 12 5 14 0
19 -2 13 -5z m-70 -30 c-7 -2 -19 -2 -25 0 -7 3 -2 5 12 5 14 0 19 -2 13 -5z
m70 0 c-7 -2 -19 -2 -25 0 -7 3 -2 5 12 5 14 0 19 -2 13 -5z"/>
<path d="M1326 204 c-12 -31 -6 -54 14 -54 26 0 46 36 29 56 -15 19 -35 18
-43 -2z m34 -18 c0 -15 -18 -31 -26 -23 -7 7 7 37 17 37 5 0 9 -6 9 -14z"/>
<path d="M1705 206 c-11 -6 -23 -15 -27 -21 -5 -6 -11 -5 -17 4 -12 19 -41 6
-41 -19 0 -14 6 -20 23 -19 21 0 21 1 2 9 -19 8 -19 9 3 9 12 1 22 -3 22 -9 0
-5 11 -10 24 -10 19 0 25 6 29 33 2 17 4 33 3 33 0 1 -10 -3 -21 -10z m0 -37
c-10 -15 -25 -10 -19 6 4 8 10 12 15 9 5 -3 7 -10 4 -15z"/>
<path d="M1760 201 c0 -11 -3 -27 -6 -36 -5 -13 -2 -16 17 -13 31 4 37 39 9
56 -17 11 -20 10 -20 -7z m30 -26 c0 -8 -4 -15 -10 -15 -5 0 -10 7 -10 15 0 8
5 15 10 15 6 0 10 -7 10 -15z"/>
<path d="M1386 184 c-8 -21 1 -34 22 -33 11 0 12 3 5 6 -7 2 -13 12 -13 21 0
14 2 15 10 2 5 -8 12 -11 15 -8 10 9 -4 28 -20 28 -7 0 -16 -7 -19 -16z"/>
<path d="M1440 185 c0 -8 6 -15 13 -15 8 0 7 -3 -3 -10 -10 -6 -6 -9 17 -8 20
1 34 7 36 17 3 9 5 4 6 -11 1 -21 6 -28 21 -28 11 0 20 6 20 13 0 6 3 22 6 34
6 20 3 22 -30 21 -28 -1 -36 -5 -36 -20 0 -16 -3 -16 -20 -6 -18 12 -19 13 -2
20 14 5 13 7 -5 7 -14 1 -23 -5 -23 -14z m96 -22 c-10 -10 -19 5 -10 18 6 11
8 11 12 0 2 -7 1 -15 -2 -18z"/>
<path d="M1568 175 c-3 -14 -1 -25 3 -25 5 0 9 6 9 14 0 8 5 18 11 22 8 4 9 0
4 -15 -4 -12 -2 -21 4 -21 6 0 11 11 11 25 0 18 -5 25 -19 25 -12 0 -20 -9
-23 -25z"/>
<path d="M1813 168 c1 -21 4 -38 7 -38 4 0 14 17 23 38 10 20 12 30 4 20 -12
-15 -14 -15 -24 0 -9 14 -11 10 -10 -20z"/>
</g>
</svg>
